<svg xmlns="http://www.w3.org/2000/svg" viewBox="0 0 24 24" fill="#888"><path d="M12.031 6.172c-3.181 0-5.767 2.586-5.768 5.766-.001 1.298.38 2.27 1.019 3.287l-.711 2.598 2.664-.698c.957.518 1.83.696 2.796.697 3.181 0 5.767-2.587 5.768-5.766.001-3.18-2.585-5.766-5.768-5.766zm-9.068 3.032c1.868-2.607 4.908-4.305 8.354-4.305 5.618 0 10.187 4.569 10.187 10.186 0 3.321-1.616 6.27-4.088 8.138l-1.42 2.924 3.13-.816c2.515-1.782 4.14-4.733 4.14-8.077 0-5.523-4.477-10-10-10-5.522 0-10 4.477-10 10 0 3.187 1.472 6.015 3.805 7.828l3.193.843-1.458-2.88c-2.486-1.89-4.103-4.869-4.103-8.221z"/></svg>
